<svg width="39" height="59" viewBox="0 0 39 59" fill="none" xmlns="http://www.w3.org/2000/svg">
<path d="M37.4382 55.8301L30.9274 49.5167C30.1981 48.8064 29.0522 48.8327 28.3491 49.5693C27.6459 50.3058 27.6719 51.4633 28.4012 52.1736L29.1955 52.9496H9.80627L10.6006 52.1736C11.3298 51.4633 11.3558 50.3058 10.6527 49.5693C9.94951 48.8327 8.80361 48.8064 8.0744 49.5167L1.56358 55.8301C0.834373 56.5404 0.808331 57.6979 1.5115 58.4344C1.86308 58.8159 2.34488 59 2.82668 59C3.28244 59 3.7382 58.829 4.08978 58.487L6.00396 56.6325H32.9848L34.899 58.487C35.2505 58.829 35.7063 59 36.162 59C36.6438 59 37.1256 58.8159 37.4772 58.4344C38.1934 57.6979 38.1674 56.5404 37.4382 55.8301Z" fill="url(#paint0_linear)"/>
<path d="M30.4688 2.10526H28.1667C28.1667 0.947368 27.1917 0 26 0H13C11.8083 0 10.8333 0.947368 10.8333 2.10526H8.80208C4.02188 2.10526 0 5.75 0 10.3947V41.4474C0 46.0921 19.5 50 19.5 50C19.5 50 39 46.0921 39 41.4474V10.3947C39 5.75 35.249 2.10526 30.4688 2.10526ZM19.5 42.1053C15.9115 42.1053 13 39.2763 13 35.7895C13 32.3026 15.9115 29.4737 19.5 29.4737C23.0885 29.4737 26 32.3026 26 35.7895C26 39.2763 23.0885 42.1053 19.5 42.1053ZM32.5 21.0526C32.5 22.2105 31.525 23.1579 30.3333 23.1579H8.66667C7.475 23.1579 6.5 22.2105 6.5 21.0526V12.6316C6.5 11.4737 7.475 10.5263 8.66667 10.5263H30.3333C31.525 10.5263 32.5 11.4737 32.5 12.6316V21.0526Z" fill="url(#paint1_linear)"/>
<path d="M19.5 40C21.433 40 23 38.2091 23 36C23 33.7909 21.433 32 19.5 32C17.567 32 16 33.7909 16 36C16 38.2091 17.567 40 19.5 40Z" fill="url(#paint2_linear)"/>
<defs>
<linearGradient id="paint0_linear" x1="0.999999" y1="54" x2="37.5997" y2="50.1724" gradientUnits="userSpaceOnUse">
<stop stop-color="#0084E3"/>
<stop offset="1" stop-color="#00D1ED"/>
</linearGradient>
<linearGradient id="paint1_linear" x1="-6.76244e-07" y1="25" x2="38.9811" y2="24.1406" gradientUnits="userSpaceOnUse">
<stop stop-color="#0084E3"/>
<stop offset="1" stop-color="#00D1ED"/>
</linearGradient>
<linearGradient id="paint2_linear" x1="16" y1="36" x2="22.9957" y2="35.827" gradientUnits="userSpaceOnUse">
<stop stop-color="#0084E3"/>
<stop offset="1" stop-color="#00D1ED"/>
</linearGradient>
</defs>
</svg>
