<svg width="61" height="43" viewBox="0 0 61 43" fill="none" xmlns="http://www.w3.org/2000/svg">
<path d="M59.1329 20.5389C56.2467 8.64301 53.1971 2.32541 47.0844 0.537668C45.7502 0.147859 44.6202 0 43.5855 0C39.828 0 37.2004 1.97593 30.5023 1.97593C23.8041 1.97593 21.1765 0 17.419 0C16.3707 0 15.2407 0.147859 13.9201 0.537668C7.80735 2.32541 4.75777 8.65645 1.87156 20.5389C-1.01466 32.4348 -0.483703 41.0241 2.91985 42.6236C3.47803 42.879 4.03622 43 4.62163 43C7.57591 43 10.7616 39.8009 13.8385 36.0103C17.3373 31.6955 18.2086 31.5746 28.8549 31.5746H32.1632C42.7959 31.5746 43.6808 31.6821 47.1797 36.0103C50.2429 39.8009 53.4422 43 56.3965 43C56.9683 43 57.5401 42.879 58.0983 42.6236C61.4882 41.0106 62.0055 32.4214 59.1329 20.5389ZM14.0563 22.5148C11.1156 22.5148 8.71951 20.1222 8.71951 17.1919C8.71951 14.2616 11.1156 11.869 14.0563 11.869C17.0106 11.869 19.3931 14.2616 19.3931 17.1919C19.4067 20.1357 17.0106 22.5148 14.0563 22.5148ZM37.5953 19.8937C36.0841 19.8937 34.8588 18.684 34.8588 17.1919C34.8588 15.6999 36.0841 14.4902 37.5953 14.4902C39.1064 14.4902 40.3317 15.6999 40.3317 17.1919C40.3317 18.684 39.1064 19.8937 37.5953 19.8937ZM43.5719 25.7946C42.0607 25.7946 40.8354 24.5849 40.8354 23.1063C40.8354 21.6008 42.0607 20.4045 43.5719 20.4045C45.0831 20.4045 46.3084 21.6008 46.3084 23.1063C46.3084 24.5849 45.0831 25.7946 43.5719 25.7946ZM43.5719 13.9928C42.0607 13.9928 40.8354 12.7831 40.8354 11.291C40.8354 9.799 42.0607 8.58925 43.5719 8.58925C45.0831 8.58925 46.3084 9.799 46.3084 11.291C46.3084 12.7831 45.0831 13.9928 43.5719 13.9928ZM49.5485 19.8937C48.0374 19.8937 46.8121 18.684 46.8121 17.1919C46.8121 15.6999 48.0374 14.4902 49.5485 14.4902C51.0597 14.4902 52.285 15.6999 52.285 17.1919C52.285 18.684 51.0597 19.8937 49.5485 19.8937Z" fill="url(#paint0_linear)"/>
<defs>
<linearGradient id="paint0_linear" x1="-1.05771e-06" y1="21.5" x2="60.9021" y2="19.058" gradientUnits="userSpaceOnUse">
<stop stop-color="#0084E3"/>
<stop offset="1" stop-color="#00D1ED"/>
</linearGradient>
</defs>
</svg>
