<svg width="198" height="27" viewBox="0 0 198 27" fill="none" xmlns="http://www.w3.org/2000/svg">
<path d="M21.6684 5.16992H13.9867V26H7.8168V5.16992H0.27578V0.40625H21.6684V5.16992ZM35.5973 16.9648H32.2574V26H26.0875V0.40625H36.1598C39.1949 0.40625 41.568 1.08008 43.2789 2.42773C44.9898 3.77539 45.8453 5.67969 45.8453 8.14062C45.8453 9.92188 45.482 11.3984 44.7555 12.5703C44.0406 13.7422 42.9156 14.6914 41.3805 15.418L46.7242 25.7363V26H40.1148L35.5973 16.9648ZM32.2574 12.2012H36.1598C37.3316 12.2012 38.2105 11.8965 38.7965 11.2871C39.3941 10.666 39.693 9.80469 39.693 8.70312C39.693 7.60156 39.3941 6.74023 38.7965 6.11914C38.1988 5.48633 37.3199 5.16992 36.1598 5.16992H32.2574V12.2012ZM65.909 21.2188H57.4539L55.9773 26H49.3855L58.7723 0.40625H64.573L74.0301 26H67.4031L65.909 21.2188ZM58.9305 16.4551H64.4324L61.6727 7.57812L58.9305 16.4551ZM84.2852 26H78.1328V0.40625H84.2852V26ZM111.749 26H105.614L96.5441 10.0742V26H90.3742V0.40625H96.5441L105.597 16.332V0.40625H111.749V26Z" fill="url(#paint0_linear)"/>
<path d="M116.807 26V8.9375H122.936C125.131 8.9375 126.799 9.33984 127.94 10.1445C129.088 10.9492 129.663 12.1172 129.663 13.6484C129.663 14.5312 129.459 15.2852 129.053 15.9102C128.647 16.5352 128.049 16.9961 127.26 17.293C128.151 17.5273 128.834 17.9648 129.311 18.6055C129.788 19.2461 130.026 20.0273 130.026 20.9492C130.026 22.6211 129.495 23.8789 128.432 24.7227C127.377 25.5586 125.811 25.9844 123.733 26H116.807ZM120.92 18.7461V22.8359H123.616C124.358 22.8359 124.928 22.668 125.327 22.332C125.725 21.9883 125.924 21.5078 125.924 20.8906C125.924 19.4688 125.217 18.7539 123.803 18.7461H120.92ZM120.92 16.0508H123.065C123.963 16.043 124.604 15.8789 124.987 15.5586C125.37 15.2383 125.561 14.7656 125.561 14.1406C125.561 13.4219 125.354 12.9062 124.94 12.5938C124.526 12.2734 123.858 12.1133 122.936 12.1133H120.92V16.0508ZM146.882 8.9375V20.1055C146.882 21.3711 146.612 22.4688 146.073 23.3984C145.534 24.3203 144.761 25.0234 143.753 25.5078C142.745 25.9922 141.554 26.2344 140.179 26.2344C138.101 26.2344 136.464 25.6953 135.269 24.6172C134.073 23.5391 133.464 22.0625 133.441 20.1875V8.9375H137.577V20.2695C137.624 22.1367 138.491 23.0703 140.179 23.0703C141.03 23.0703 141.675 22.8359 142.112 22.3672C142.55 21.8984 142.769 21.1367 142.769 20.082V8.9375H146.882ZM150.66 26V8.9375H156.156C157.664 8.9375 159.02 9.28125 160.223 9.96875C161.426 10.6484 162.363 11.6133 163.035 12.8633C163.715 14.1055 164.059 15.5 164.066 17.0469V17.832C164.066 19.3945 163.734 20.7969 163.07 22.0391C162.414 23.2734 161.484 24.2422 160.281 24.9453C159.086 25.6406 157.75 25.9922 156.273 26H150.66ZM154.773 12.1133V22.8359H156.203C157.383 22.8359 158.289 22.418 158.922 21.582C159.555 20.7383 159.871 19.4883 159.871 17.832V17.0938C159.871 15.4453 159.555 14.2031 158.922 13.3672C158.289 12.5312 157.367 12.1133 156.156 12.1133H154.773ZM167.376 26V8.9375H172.872C174.38 8.9375 175.735 9.28125 176.938 9.96875C178.141 10.6484 179.079 11.6133 179.751 12.8633C180.43 14.1055 180.774 15.5 180.782 17.0469V17.832C180.782 19.3945 180.45 20.7969 179.786 22.0391C179.13 23.2734 178.2 24.2422 176.997 24.9453C175.802 25.6406 174.466 25.9922 172.989 26H167.376ZM171.489 12.1133V22.8359H172.919C174.098 22.8359 175.005 22.418 175.638 21.582C176.27 20.7383 176.587 19.4883 176.587 17.832V17.0938C176.587 15.4453 176.27 14.2031 175.638 13.3672C175.005 12.5312 174.083 12.1133 172.872 12.1133H171.489ZM189.822 16.3438L192.962 8.9375H197.404L191.908 19.8711V26H187.736V19.8711L182.252 8.9375H186.67L189.822 16.3438Z" fill="#193E58"/>
<defs>
<linearGradient id="paint0_linear" x1="-70" y1="14" x2="250.515" y2="-58.6899" gradientUnits="userSpaceOnUse">
<stop stop-color="#0084E3"/>
<stop offset="1" stop-color="#00D1ED"/>
</linearGradient>
</defs>
</svg>
