<svg width="53" height="60" viewBox="0 0 53 60" fill="none" xmlns="http://www.w3.org/2000/svg">
<g clip-path="url(#clip0)">
<path d="M30.1048 39.8565C29.9069 39.6112 29.6565 39.4276 29.3977 39.2747C28.8342 38.9421 28.218 38.7404 27.6062 38.5582V43.9254C28.5993 43.7984 29.7394 43.3904 30.2608 42.3408C30.5097 41.8395 30.5592 41.2235 30.4579 40.6654C30.4029 40.363 30.2892 40.0854 30.1048 39.8565Z" fill="url(#paint0_linear)"/>
<path d="M30.2556 42.3503C30.2572 42.3468 30.258 42.3446 30.2597 42.3408C30.2583 42.3439 30.257 42.347 30.2556 42.3503Z" fill="url(#paint1_linear)"/>
<path d="M22.9482 31.2766C22.7775 31.5588 22.6703 31.8794 22.6408 32.2202C22.6112 32.5618 22.6278 32.9417 22.7424 33.2632C22.8515 33.5695 23.0801 33.7957 23.3161 33.9778C23.5808 34.1817 23.872 34.341 24.1686 34.4759C24.4174 34.5893 24.6973 34.6977 24.9989 34.8025V29.9458C24.2368 30.1299 23.4041 30.5229 22.9482 31.2766Z" fill="url(#paint2_linear)"/>
<path d="M30.2803 42.3011C30.2741 42.3137 30.2674 42.3268 30.2607 42.3407C30.2685 42.3246 30.2746 42.3127 30.2803 42.3011Z" fill="url(#paint3_linear)"/>
<path d="M30.3054 42.2507C30.3067 42.2476 30.3069 42.2473 30.3054 42.2507V42.2507Z" fill="url(#paint4_linear)"/>
<path d="M29.2764 13.0552C33.3082 9.22097 36.0023 0.582962 34.3443 0.205155C32.1414 -0.297033 27.3577 1.905 25.0456 2.29297C21.7662 2.74123 18.1944 -1.73287 16.1895 0.760993C14.5594 2.78867 17.3582 10.1627 21.737 13.3751C8.67317 20.6438 -9.68889 57.1332 22.3447 59.7808C66.6686 63.4443 44.474 20.1384 29.2764 13.0552ZM33.083 41.8325C32.9467 43.255 32.2807 44.5415 31.2853 45.4148C30.2342 46.337 28.9159 46.766 27.606 46.8861V48.4579C27.606 48.8785 27.4438 49.2852 27.1657 49.5636C26.7834 49.9465 26.2217 50.041 25.7578 49.799C25.2997 49.5604 24.9988 49.0286 24.9988 48.4579V46.74C24.7742 46.6917 24.5512 46.6342 24.3308 46.5658C23.1067 46.185 21.9712 45.4428 21.1417 44.3447C20.7285 43.7973 20.3917 43.1762 20.1587 42.5058C20.0979 42.3305 20.0436 42.1521 19.9961 41.9717C19.9531 41.8083 19.9087 41.6423 19.8934 41.472C19.8675 41.1864 19.9175 40.895 20.0352 40.6406C20.2768 40.1172 20.7862 39.8011 21.3062 39.8536C21.818 39.905 22.2666 40.3071 22.4277 40.8594C22.4774 41.0295 22.5111 41.2039 22.5668 41.3722C22.622 41.5394 22.6888 41.7019 22.7672 41.8566C22.9221 42.1613 23.1162 42.4422 23.3396 42.686C23.8003 43.1885 24.3871 43.5151 24.9988 43.7093V37.8697C23.8027 37.5192 22.568 37.0664 21.5803 36.197C21.1003 35.7743 20.693 35.2491 20.4262 34.6275C20.1448 33.9714 20.0282 33.2405 20.0234 32.5145C20.0186 31.7774 20.1423 31.0468 20.4139 30.3752C20.6683 29.7463 21.0346 29.1817 21.4837 28.7137C22.444 27.7131 23.7195 27.155 24.9989 26.9501V26.8216V25.3184C24.9989 24.898 25.1612 24.4911 25.4393 24.2126C25.8217 23.8299 26.3831 23.7353 26.8472 23.9773C27.3051 24.216 27.6062 24.7477 27.6062 25.3184V26.8216V26.9412C27.7766 26.9654 27.9466 26.9945 28.1157 27.0293C29.3721 27.2866 30.6009 27.874 31.5196 28.8994C31.9549 29.385 32.3112 29.9637 32.5617 30.5948C32.6317 30.7709 32.6929 30.951 32.7459 31.1347C32.7953 31.306 32.8449 31.4823 32.8685 31.6611C32.9062 31.9464 32.8677 32.2412 32.7599 32.5022C32.5389 33.037 32.0433 33.3776 31.5219 33.3523C31.0095 33.327 30.5454 32.9493 30.3619 32.4072C30.3073 32.246 30.28 32.0753 30.2242 31.9145C30.168 31.7517 30.0952 31.5964 30.0112 31.4497C29.8481 31.1645 29.6367 30.92 29.3954 30.7185C28.8729 30.2817 28.2391 30.0541 27.6058 29.9269V35.5152C28.3584 35.7192 29.1117 35.9417 29.8328 36.2636C30.9226 36.7501 31.9554 37.4961 32.5502 38.6725C32.4579 38.4892 32.3681 38.3106 32.5533 38.6786C32.7352 39.04 32.6484 38.8677 32.5571 38.6866C33.0304 39.6308 33.1859 40.7599 33.083 41.8325Z" fill="url(#paint5_linear)"/>
<path d="M30.2416 42.3788C30.234 42.3942 30.2274 42.4077 30.2222 42.418C30.2267 42.4091 30.2334 42.3957 30.2416 42.3788Z" fill="url(#paint6_linear)"/>
</g>
<defs>
<linearGradient id="paint0_linear" x1="27.6062" y1="41.2418" x2="30.5066" y2="41.1975" gradientUnits="userSpaceOnUse">
<stop stop-color="#0084E3"/>
<stop offset="1" stop-color="#00D1ED"/>
</linearGradient>
<linearGradient id="paint1_linear" x1="30.2556" y1="42.3455" x2="30.2597" y2="42.3455" gradientUnits="userSpaceOnUse">
<stop stop-color="#0084E3"/>
<stop offset="1" stop-color="#00D1ED"/>
</linearGradient>
<linearGradient id="paint2_linear" x1="22.6279" y1="32.3741" x2="24.9985" y2="32.3414" gradientUnits="userSpaceOnUse">
<stop stop-color="#0084E3"/>
<stop offset="1" stop-color="#00D1ED"/>
</linearGradient>
<linearGradient id="paint3_linear" x1="30.2607" y1="42.3209" x2="30.2803" y2="42.3206" gradientUnits="userSpaceOnUse">
<stop stop-color="#0084E3"/>
<stop offset="1" stop-color="#00D1ED"/>
</linearGradient>
<linearGradient id="paint4_linear" x1="30.3054" y1="42.2494" x2="30.3064" y2="42.2494" gradientUnits="userSpaceOnUse">
<stop stop-color="#0084E3"/>
<stop offset="1" stop-color="#00D1ED"/>
</linearGradient>
<linearGradient id="paint5_linear" x1="4.51929" y1="30.0002" x2="48.4618" y2="29.0902" gradientUnits="userSpaceOnUse">
<stop stop-color="#0084E3"/>
<stop offset="1" stop-color="#00D1ED"/>
</linearGradient>
<linearGradient id="paint6_linear" x1="30.2222" y1="42.3984" x2="30.2416" y2="42.3981" gradientUnits="userSpaceOnUse">
<stop stop-color="#0084E3"/>
<stop offset="1" stop-color="#00D1ED"/>
</linearGradient>
<clipPath id="clip0">
<rect width="53" height="60" fill="white"/>
</clipPath>
</defs>
</svg>
