<svg width="25" height="25" viewBox="0 0 112 112" fill="none" xmlns="http://www.w3.org/2000/svg">
<path d="M56 108C84.7188 108 108 84.7188 108 56C108 27.2812 84.7188 4 56 4C27.2812 4 4 27.2812 4 56C4 84.7188 27.2812 108 56 108Z" stroke="#FFFFFF" stroke-width="8" stroke-linecap="round" stroke-linejoin="round"/>
<g clip-path="url(#clip0)">
<path d="M56 26.2083V85.7916" stroke="#FFFFFF" stroke-width="10" stroke-linecap="round" stroke-linejoin="round"/>
<path d="M69.5417 37.0417H49.2292C46.7151 37.0417 44.3041 38.0404 42.5264 39.8181C40.7487 41.5958 39.75 44.0069 39.75 46.5209C39.75 49.0349 40.7487 51.446 42.5264 53.2237C44.3041 55.0014 46.7151 56.0001 49.2292 56.0001H62.7708C65.2849 56.0001 67.6959 56.9987 69.4736 58.7764C71.2513 60.5541 72.25 62.9652 72.25 65.4792C72.25 67.9933 71.2513 70.4043 69.4736 72.182C67.6959 73.9597 65.2849 74.9584 62.7708 74.9584H39.75" stroke="#FFFFFF" stroke-width="10" stroke-linecap="round" stroke-linejoin="round"/>
</g>
<defs>
<clipPath id="clip0">
<rect x="23.5" y="23.5" width="65" height="65" fill="white"/>
</clipPath>
</defs>
</svg>
